<?xml version="1.0" encoding="utf-8"?>
<!-- Generator: Adobe Illustrator 16.0.0, SVG Export Plug-In . SVG Version: 6.00 Build 0)  -->
<!DOCTYPE svg PUBLIC "-//W3C//DTD SVG 1.1//EN" "http://www.w3.org/Graphics/SVG/1.1/DTD/svg11.dtd">
<svg version="1.1" id="Layer_1" xmlns="http://www.w3.org/2000/svg" xmlns:xlink="http://www.w3.org/1999/xlink" x="0px" y="0px"
	 width="24px" height="24px" viewBox="0 0 24 24" enable-background="new 0 0 24 24" xml:space="preserve">
<g>
	<path fill="#212121" d="M12,0.031C5.39,0.031,0.031,5.389,0.031,12c0,6.61,5.358,11.969,11.969,11.969V0.031z"/>
	<path fill="#424242" d="M12,0.031v23.938c6.61,0,11.969-5.358,11.969-11.969S18.61,0.031,12,0.031z"/>
</g>
<path fill="#D32F2F" d="M17.554,11.201c-0.229-0.3-0.5-0.56-0.76-0.82c-0.649-0.6-1.399-1.03-2.03-1.66
	c-1.46-1.46-1.76-3.87-0.85-5.72c-0.91,0.23-1.75,0.75-2.45,1.32c-2.54,2.08-3.54,5.75-2.34,8.9c0.04,0.1,0.08,0.199,0.08,0.329
	c0,0.22-0.15,0.421-0.35,0.5c-0.22,0.101-0.46,0.04-0.64-0.12c-0.06-0.05-0.1-0.1-0.15-0.17c-1.1-1.429-1.28-3.479-0.53-5.119
	c-1.64,1.36-2.53,3.66-2.39,5.83c0.04,0.5,0.1,1,0.27,1.5c0.14,0.6,0.4,1.199,0.72,1.729c1.04,1.729,2.87,2.97,4.84,3.22
	c2.1,0.27,4.35-0.12,5.959-1.6c1.801-1.66,2.45-4.32,1.5-6.6l-0.13-0.26c-0.2-0.46-0.47-0.87-0.8-1.25L17.554,11.201 M14.454,17.5
	c-0.28,0.24-0.729,0.5-1.08,0.6c-1.1,0.4-2.2-0.16-2.87-0.82c1.19-0.279,1.89-1.159,2.089-2.049c0.17-0.801-0.139-1.461-0.27-2.23
	c-0.12-0.739-0.1-1.37,0.18-2.06c0.17,0.38,0.37,0.76,0.6,1.06c0.76,1,1.95,1.439,2.2,2.799c0.04,0.14,0.06,0.28,0.06,0.431
	c0.031,0.819-0.319,1.72-0.92,2.27H14.454z"/>
</svg>
